<?xml version="1.0" encoding="UTF-8"?><svg xmlns="http://www.w3.org/2000/svg"><symbol id="icon-facebook" viewBox="0 0 10 19">
    <path d="M9.766.157v2.946H8.014c-.64 0-1.071.134-1.295.402-.223.268-.335.67-.335 1.205v2.11h3.27l-.435 3.303H6.384v8.471H2.97v-8.47H.123V6.82H2.97V4.387c0-1.384.387-2.457 1.161-3.22C4.904.404 5.934.023 7.222.023c1.093 0 1.941.045 2.544.134z" fill-rule="evenodd"/>
</symbol><symbol id="icon-grid" viewBox="0 0 19 19">
    <path d="M5 5H0V0h5v5zm7-5H7v5h5V0zm7 0h-5v5h5V0zM5 7H0v5h5V7zm7 0H7v5h5V7zm7 0h-5v5h5V7zM5 14H0v5h5v-5zm7 0H7v5h5v-5zm7 0h-5v5h5v-5z"/>
</symbol><symbol id="icon-help" viewBox="0 0 510 510">
    <path d="M255 0C114.8 0 0 114.8 0 255s114.8 255 255 255 255-114.8 255-255S395.3 0 255 0zm25.5 433.5h-51v-51h51v51zM334 237.1l-22.9 23c-20.4 17.9-30.6 33.1-30.6 71.4h-51v-12.8c0-28 10.2-53.5 30.6-71.4l30.6-33.2c10.2-7.6 15.3-20.4 15.3-35.7 0-28.1-23-51-51-51s-51 22.9-51 51h-51c0-56.1 45.9-102 102-102s102 45.9 102 102c0 23-10.2 43.5-23 58.7z"/>
</symbol><symbol id="icon-list" viewBox="0 0 19 19">
    <path d="M19 5H0V0h19v5zm0 2H0v5h19V7zm0 7H0v5h19v-5z"/>
</symbol><symbol id="icon-user" viewBox="0 0 26 26">
    <path d="M13 0C5.8 0 0 5.8 0 13s5.8 13 13 13 13-5.8 13-13S20.2 0 13 0zm6.6 19.2c0 .4-.3.7-.7.7H7.2c-.4 0-.7-.3-.7-.7v-.3c0-.9.4-1.8 1.1-2.3 1.5-1.1 2.9-1.8 3.2-1.9l.1-.1v-1.3c-.2-.3-.3-.7-.4-1-.1 0-.3-.2-.5-.9-.3-1 0-1.1.3-1.1 0-.1-.1-.3-.1-.4-.1-.5-.1-.9 0-1.3.1-.5.4-1 .8-1.3.2-.2.4-.4.7-.6.2-.1.4-.3.7-.3.2-.1.4-.1.6-.1.5-.3 1-.1 1.4.1.5.3.8.7.8.7s1.3.1.8 2.6c0 .1-.1.3-.1.4.2 0 .5.1.3 1.1-.2.7-.4.9-.5.9 0 .3-.2.7-.4 1v1.3s0 .1.1.1c.3.2 1.7.9 3.2 1.9.7.5 1.2 1.4 1.1 2.3v.5z"/>
</symbol></svg>